<?xml version="1.0" encoding="UTF-8" standalone="no"?>
<!-- Created with Inkscape (http://www.inkscape.org/) -->

<svg
   width="48"
   height="48"
   viewBox="0 0 48 48.000002"
   version="1.1"
   id="svg5"
   inkscape:version="1.3 (0e150ed6c4, 2023-07-21)"
   sodipodi:docname="favicon.svg"
   xmlns:inkscape="http://www.inkscape.org/namespaces/inkscape"
   xmlns:sodipodi="http://sodipodi.sourceforge.net/DTD/sodipodi-0.dtd"
   xmlns="http://www.w3.org/2000/svg"
   xmlns:svg="http://www.w3.org/2000/svg">
  <sodipodi:namedview
     id="namedview7"
     pagecolor="#505050"
     bordercolor="#eeeeee"
     borderopacity="1"
     inkscape:pageshadow="0"
     inkscape:pageopacity="0"
     inkscape:pagecheckerboard="0"
     inkscape:document-units="px"
     showgrid="false"
     units="px"
     inkscape:zoom="12.384781"
     inkscape:cx="19.297878"
     inkscape:cy="22.850625"
     inkscape:window-width="1896"
     inkscape:window-height="1035"
     inkscape:window-x="10"
     inkscape:window-y="31"
     inkscape:window-maximized="1"
     inkscape:current-layer="layer1"
     lock-margins="false"
     fit-margin-top="0"
     fit-margin-left="0"
     fit-margin-right="0"
     fit-margin-bottom="0"
     inkscape:showpageshadow="0"
     inkscape:deskcolor="#d1d1d1" />
  <defs
     id="defs2" />
  <g
     inkscape:label="Layer 1"
     inkscape:groupmode="layer"
     id="layer1"
     transform="translate(-1.362862,-6.8446781)">
    <rect
       style="fill:#24283b;fill-opacity:1;stroke:none;stroke-width:0.2;stroke-linecap:round;stroke-linejoin:round;stroke-dashoffset:92"
       id="rect1"
       width="48"
       height="48"
       x="1.362862"
       y="6.8446779"
       rx="8.6714334" />
    <g
       id="g1"
       transform="matrix(0.94875268,0,0,0.94875268,2.5927981,8.0746137)"
       style="stroke-width:1.05402">
      <path
         style="fill:#a9b1d6;fill-opacity:1;stroke:none;stroke-width:1.05401px;stroke-linecap:butt;stroke-linejoin:miter;stroke-opacity:1"
         d="m 36.916644,6.8446781 -0.789773,4.5044739 2.774488,-0.913038 z"
         id="path2358-2"
         sodipodi:nodetypes="cccc" />
      <path
         style="fill:#a9b1d6;fill-opacity:1;stroke:none;stroke-width:1.05401px;stroke-linecap:butt;stroke-linejoin:miter;stroke-opacity:1"
         d="m 33.17487,7.7335004 0.28809,4.1386196 2.663911,-0.522968 z"
         id="path2461-2"
         sodipodi:nodetypes="cccc" />
      <path
         style="fill:#a9b1d6;fill-opacity:1;stroke:none;stroke-width:1.05401px;stroke-linecap:butt;stroke-linejoin:miter;stroke-opacity:1"
         d="m 29.859588,9.458996 1.102599,4.202535 2.500773,-1.789411 z"
         id="path2463-4"
         sodipodi:nodetypes="cccc" />
      <path
         style="fill:#a9b1d6;fill-opacity:1;stroke:none;stroke-width:1.05401px;stroke-linecap:butt;stroke-linejoin:miter;stroke-opacity:1"
         d="m 27.082054,11.69884 1.746731,4.283986 2.133402,-2.321295 z"
         id="path2465-7"
         sodipodi:nodetypes="cccc" />
      <path
         style="fill:#a9b1d6;fill-opacity:1;stroke:none;stroke-width:1.05401px;stroke-linecap:butt;stroke-linejoin:miter;stroke-opacity:1"
         d="m 24.822985,14.455325 2.601672,4.202535 1.404128,-2.675034 z"
         id="path2467-7"
         sodipodi:nodetypes="cccc" />
      <path
         style="fill:#a9b1d6;fill-opacity:1;stroke:none;stroke-width:1.05401px;stroke-linecap:butt;stroke-linejoin:miter;stroke-opacity:1"
         d="m 23.116122,17.63869 3.709762,3.53266 v -3.150533 z"
         id="path2469-5"
         sodipodi:nodetypes="cccc" />
      <path
         id="circle765-4"
         style="fill:#a9b1d6;fill-opacity:1;stroke:none;stroke-width:1.05401;stop-color:#000000"
         d="m 39.908472,9.334353 a 15.317827,15.395816 0 0 0 -15.003724,12.45621 l 4.423253,-0.876798 a 1.8801668,1.8801668 0 0 1 1.906273,0.769925 9.6889873,9.7383179 0 0 1 9.182393,-6.691588 9.6889873,9.7383179 0 0 1 6.22047,2.274879 L 46.292525,10.734613 A 15.317827,15.395816 0 0 0 39.908472,9.334353 Z M 24.780426,27.033905 a 15.317827,15.395816 0 0 0 13.313378,12.973129 l -1.236677,-6.242282 a 9.6889873,9.7383179 0 0 1 -5.740632,-6.447304 1.8801668,1.8801668 0 0 1 -1.786313,0.617248 z m 21.856711,5.147375 a 9.6889873,9.7383179 0 0 1 -3.219289,1.777589 l -1.179971,5.963102 a 15.317827,15.395816 0 0 0 4.054648,-1.1996 z" />
      <path
         style="color:#000000;fill:#9ece6a;fill-opacity:1;stroke-width:1.05401;stroke-linecap:round;stroke-linejoin:round"
         d="m 30.095336,23.632809 a 0.79178204,0.79178204 0 0 0 -0.791783,0.791783 0.79178204,0.79178204 0 0 0 0.791783,0.791782 h 7.688954 a 0.79178204,0.79178204 0 0 0 0.791784,-0.791782 0.79178204,0.79178204 0 0 0 -0.791784,-0.791783 z"
         id="path633-8" />
      <path
         class="a"
         d="m 29.694115,26.089675 -8.410678,-1.665139 8.410678,-1.665027 z"
         id="path1233-1"
         sodipodi:nodetypes="cccc"
         style="fill:#9ece6a;fill-opacity:1;stroke:#9ece6a;stroke-width:1.05402;stroke-linecap:round;stroke-linejoin:round;stroke-opacity:1" />
      <path
         style="color:#000000;fill:#9ece6a;fill-opacity:1;stroke-width:1.05401;stroke-linecap:round;stroke-linejoin:round"
         d="m 40.156546,21.235812 c -1.748895,0 -3.188782,1.429873 -3.188782,3.176411 0,1.746537 1.439887,3.17641 3.188782,3.17641 1.748893,0 3.188781,-1.429873 3.188781,-3.17641 0,-1.746538 -1.439888,-3.176411 -3.188781,-3.176411 z m 0,1.583566 c 0.897409,0 1.605215,0.706486 1.605215,1.592845 0,0.88636 -0.707806,1.592844 -1.605215,1.592844 -0.897409,0 -1.605216,-0.706484 -1.605216,-1.592844 0,-0.886359 0.707807,-1.592845 1.605216,-1.592845 z"
         id="path6933-2" />
      <path
         style="color:#000000;fill:#9ece6a;fill-opacity:1;stroke-width:1.05402;stroke-linecap:round;stroke-linejoin:round"
         d="m 40.948329,32.331916 a 0.79178204,0.59068991 0 0 1 -0.791783,0.590689 0.79178204,0.59068991 0 0 1 -0.791782,-0.590689 v -5.736159 a 0.79178204,0.59068991 0 0 1 0.791782,-0.590691 0.79178204,0.59068991 0 0 1 0.791783,0.590691 z"
         id="path6935-8" />
      <path
         class="a"
         d="m 38.491463,32.244853 1.665139,8.410676 1.665027,-8.410676 z"
         id="path6937-9"
         sodipodi:nodetypes="cccc"
         style="fill:#9ece6a;fill-opacity:1;stroke:#9ece6a;stroke-width:1.05402;stroke-linecap:round;stroke-linejoin:round;stroke-opacity:1" />
      <path
         d="m 1.362862,30.235747 v 4.885644 l 4.932057,4.885643 v -4.885643 -4.885644 z"
         style="fill:#9ece6a;fill-opacity:1;stroke:none;stroke-width:1.40535"
         id="path2001" />
      <path
         d="m 6.248506,40.007034 h 8.352007 V 35.121391 H 6.248506 Z"
         style="fill:#739449;fill-opacity:1;stroke:none;stroke-width:1.40535"
         id="path2027" />
      <path
         d="m 6.345242,13.624559 h 8.20446 V 8.738916 h -8.20446 z"
         style="fill:#739449;fill-opacity:1;stroke:none;stroke-width:1.40535"
         id="path2047" />
      <path
         d="m 14.507685,40.007034 h 0.09282 l 4.839231,-4.885643 H 14.50768 Z"
         style="fill:#9ece6a;fill-opacity:1;stroke:none;stroke-width:1.40535"
         id="path2069" />
      <path
         d="m 14.5541,8.738916 v 4.885643 h 4.885643 0.04641 z"
         style="fill:#9ece6a;fill-opacity:1;stroke:none;stroke-width:1.40535"
         id="path2091" />
      <path
         d="m 14.507685,13.624559 v 21.496832 h 4.932058 V 13.624559 H 14.5541 Z"
         style="fill:#9ece6a;fill-opacity:1;stroke:none;stroke-width:1.40535"
         id="path2113" />
    </g>
  </g>
</svg>
