<?xml version="1.0" encoding="UTF-8" standalone="no"?>
<!DOCTYPE svg PUBLIC "-//W3C//DTD SVG 20010904//EN"
              "http://www.w3.org/TR/2001/REC-SVG-20010904/DTD/svg10.dtd">

<svg xmlns="http://www.w3.org/2000/svg"
     width="1.2in" height="0.09in"
     viewBox="0 0 360 27">
  <path id="Selection #1"
        fill="none" stroke="black" stroke-width="1"
        d="M 189.00,0.00
           C 189.00,0.00 201.00,0.00 201.00,0.00
             201.00,0.00 201.00,3.00 201.00,3.00
             201.00,3.00 207.00,3.00 207.00,3.00
             207.00,3.00 207.00,6.00 207.00,6.00
             207.00,6.00 213.00,6.00 213.00,6.00
             213.00,6.00 213.00,9.00 213.00,9.00
             213.00,9.00 219.00,9.00 219.00,9.00
             219.00,9.00 219.00,12.00 219.00,12.00
             219.00,12.00 225.00,12.00 225.00,12.00
             225.00,12.00 225.00,15.00 225.00,15.00
             225.00,15.00 231.00,15.00 231.00,15.00
             231.00,15.00 231.00,18.00 231.00,18.00
             231.00,18.00 243.00,18.00 243.00,18.00
             243.00,18.00 243.00,15.00 243.00,15.00
             243.00,15.00 255.00,15.00 255.00,15.00
             255.00,15.00 255.00,12.00 255.00,12.00
             255.00,12.00 270.00,12.00 270.00,12.00
             270.00,12.00 270.00,9.00 270.00,9.00
             270.00,9.00 282.00,9.00 282.00,9.00
             282.00,9.00 282.00,6.00 282.00,6.00
             282.00,6.00 294.00,6.00 294.00,6.00
             294.00,6.00 294.00,9.00 294.00,9.00
             294.00,9.00 306.00,9.00 306.00,9.00
             306.00,9.00 306.00,12.00 306.00,12.00
             306.00,12.00 318.00,12.00 318.00,12.00
             318.00,12.00 318.00,15.00 318.00,15.00
             318.00,15.00 330.00,15.00 330.00,15.00
             330.00,15.00 330.00,18.00 330.00,18.00
             330.00,18.00 342.00,18.00 342.00,18.00
             342.00,18.00 342.00,15.00 342.00,15.00
             342.00,15.00 348.00,15.00 348.00,15.00
             348.00,15.00 348.00,12.00 348.00,12.00
             348.00,12.00 354.00,12.00 354.00,12.00
             354.00,12.00 354.00,9.00 354.00,9.00
             354.00,9.00 360.00,9.00 360.00,9.00
             360.00,9.00 360.00,27.00 360.00,27.00
             360.00,27.00 0.00,27.00 0.00,27.00
             0.00,27.00 0.00,3.00 0.00,3.00
             0.00,3.00 9.00,3.00 9.00,3.00
             9.00,3.00 9.00,6.00 9.00,6.00
             9.00,6.00 21.00,6.00 21.00,6.00
             21.00,6.00 21.00,9.00 21.00,9.00
             21.00,9.00 33.00,9.00 33.00,9.00
             33.00,9.00 33.00,12.00 33.00,12.00
             33.00,12.00 48.00,12.00 48.00,12.00
             48.00,12.00 48.00,15.00 48.00,15.00
             48.00,15.00 60.00,15.00 60.00,15.00
             60.00,15.00 60.00,18.00 60.00,18.00
             60.00,18.00 75.00,18.00 75.00,18.00
             75.00,18.00 75.00,15.00 75.00,15.00
             75.00,15.00 84.00,15.00 84.00,15.00
             84.00,15.00 84.00,12.00 84.00,12.00
             84.00,12.00 93.00,12.00 93.00,12.00
             93.00,12.00 93.00,9.00 93.00,9.00
             93.00,9.00 105.00,9.00 105.00,9.00
             105.00,9.00 105.00,6.00 105.00,6.00
             105.00,6.00 114.00,6.00 114.00,6.00
             114.00,6.00 114.00,3.00 114.00,3.00
             114.00,3.00 120.00,3.00 120.00,3.00
             120.00,3.00 120.00,6.00 120.00,6.00
             120.00,6.00 126.00,6.00 126.00,6.00
             126.00,6.00 126.00,9.00 126.00,9.00
             126.00,9.00 132.00,9.00 132.00,9.00
             132.00,9.00 132.00,12.00 132.00,12.00
             132.00,12.00 138.00,12.00 138.00,12.00
             138.00,12.00 138.00,9.00 138.00,9.00
             138.00,9.00 156.00,9.00 156.00,9.00
             156.00,9.00 156.00,6.00 156.00,6.00
             156.00,6.00 171.00,6.00 171.00,6.00
             171.00,6.00 171.00,3.00 171.00,3.00
             171.00,3.00 189.00,3.00 189.00,3.00
             189.00,3.00 189.00,0.00 189.00,0.00 Z" />
</svg>
