<?xml version="1.0" encoding="UTF-8" standalone="no"?>
<!DOCTYPE svg PUBLIC "-//W3C//DTD SVG 20010904//EN"
              "http://www.w3.org/TR/2001/REC-SVG-20010904/DTD/svg10.dtd">

<svg xmlns="http://www.w3.org/2000/svg"
     width="1.2in" height="0.09in"
     viewBox="0 0 360 27">
  <path id="Selection"
        fill="none" stroke="black" stroke-width="1"
        d="M 0.00,0.00
           C 0.00,0.00 360.00,0.00 360.00,0.00
             360.00,0.00 360.00,24.00 360.00,24.00
             360.00,24.00 351.00,24.00 351.00,24.00
             351.00,24.00 351.00,21.00 351.00,21.00
             351.00,21.00 339.00,21.00 339.00,21.00
             339.00,21.00 339.00,18.00 339.00,18.00
             339.00,18.00 327.00,18.00 327.00,18.00
             327.00,18.00 327.00,15.00 327.00,15.00
             327.00,15.00 312.00,15.00 312.00,15.00
             312.00,15.00 312.00,12.00 312.00,12.00
             312.00,12.00 300.00,12.00 300.00,12.00
             300.00,12.00 300.00,9.00 300.00,9.00
             300.00,9.00 285.00,9.00 285.00,9.00
             285.00,9.00 285.00,12.00 285.00,12.00
             285.00,12.00 276.00,12.00 276.00,12.00
             276.00,12.00 276.00,15.00 276.00,15.00
             276.00,15.00 267.00,15.00 267.00,15.00
             267.00,15.00 267.00,18.00 267.00,18.00
             267.00,18.00 255.00,18.00 255.00,18.00
             255.00,18.00 255.00,21.00 255.00,21.00
             255.00,21.00 246.00,21.00 246.00,21.00
             246.00,21.00 246.00,24.00 246.00,24.00
             246.00,24.00 240.00,24.00 240.00,24.00
             240.00,24.00 240.00,21.00 240.00,21.00
             240.00,21.00 234.00,21.00 234.00,21.00
             234.00,21.00 234.00,18.00 234.00,18.00
             234.00,18.00 228.00,18.00 228.00,18.00
             228.00,18.00 228.00,15.00 228.00,15.00
             228.00,15.00 222.00,15.00 222.00,15.00
             222.00,15.00 222.00,18.00 222.00,18.00
             222.00,18.00 204.00,18.00 204.00,18.00
             204.00,18.00 204.00,21.00 204.00,21.00
             204.00,21.00 189.00,21.00 189.00,21.00
             189.00,21.00 189.00,24.00 189.00,24.00
             189.00,24.00 171.00,24.00 171.00,24.00
             171.00,24.00 171.00,27.00 171.00,27.00
             171.00,27.00 159.00,27.00 159.00,27.00
             159.00,27.00 159.00,24.00 159.00,24.00
             159.00,24.00 153.00,24.00 153.00,24.00
             153.00,24.00 153.00,21.00 153.00,21.00
             153.00,21.00 147.00,21.00 147.00,21.00
             147.00,21.00 147.00,18.00 147.00,18.00
             147.00,18.00 141.00,18.00 141.00,18.00
             141.00,18.00 141.00,15.00 141.00,15.00
             141.00,15.00 135.00,15.00 135.00,15.00
             135.00,15.00 135.00,12.00 135.00,12.00
             135.00,12.00 129.00,12.00 129.00,12.00
             129.00,12.00 129.00,9.00 129.00,9.00
             129.00,9.00 117.00,9.00 117.00,9.00
             117.00,9.00 117.00,12.00 117.00,12.00
             117.00,12.00 105.00,12.00 105.00,12.00
             105.00,12.00 105.00,15.00 105.00,15.00
             105.00,15.00 90.00,15.00 90.00,15.00
             90.00,15.00 90.00,18.00 90.00,18.00
             90.00,18.00 78.00,18.00 78.00,18.00
             78.00,18.00 78.00,21.00 78.00,21.00
             78.00,21.00 66.00,21.00 66.00,21.00
             66.00,21.00 66.00,18.00 66.00,18.00
             66.00,18.00 54.00,18.00 54.00,18.00
             54.00,18.00 54.00,15.00 54.00,15.00
             54.00,15.00 42.00,15.00 42.00,15.00
             42.00,15.00 42.00,12.00 42.00,12.00
             42.00,12.00 30.00,12.00 30.00,12.00
             30.00,12.00 30.00,9.00 30.00,9.00
             30.00,9.00 18.00,9.00 18.00,9.00
             18.00,9.00 18.00,12.00 18.00,12.00
             18.00,12.00 12.00,12.00 12.00,12.00
             12.00,12.00 12.00,15.00 12.00,15.00
             12.00,15.00 6.00,15.00 6.00,15.00
             6.00,15.00 6.00,18.00 6.00,18.00
             6.00,18.00 0.00,18.00 0.00,18.00
             0.00,18.00 0.00,0.00 0.00,0.00 Z" />
</svg>
